<svg xmlns="http://www.w3.org/2000/svg" xmlns:xlink="http://www.w3.org/1999/xlink" version="1.1" x="0px" y="0px" viewBox="0 0 100 125" enable-background="new 0 0 100 100" xml:space="preserve"><g><path d="M94.701,37.458c-0.265-1.94-4.481-1.696-10.644-1.749c-2.051-7.831-4.954-15.302-8.605-16.204   c-6.165-1.523-9.84-2.417-18.822-2.688c-0.549-3.921-0.938-9.716-6.63-9.716c-5.692,0-6.08,5.795-6.63,9.716   c-8.981,0.271-12.656,1.165-18.821,2.688c-3.653,0.902-6.555,8.373-8.607,16.204c-6.16,0.053-10.378-0.191-10.643,1.749   c-0.277,2.036-0.578,5.9,0.185,6.665C6.315,44.957,7.521,44.955,9,44.4c1.367-0.513,0.147-0.945,5.185-1.009   c-1.062,5.325-1.664,9.77-1.762,11.005c-0.277,3.518-0.739,3.702-1.572,5.368c-0.484,0.968,0.531,7.646,1.92,13.712   c-0.552,6.019,0.117,13.644,0.14,15.951c0.021,2.081,0.473,3.47,2.035,3.47c1.18,0,3.887,0,5.137,0s2.221-0.764,2.221-2.499   c0-1.04-0.025-3.521-0.09-5.443c7.934,0.592,21.148-0.388,27.786-0.388c6.639,0,19.853,0.979,27.786,0.388   c-0.065,1.922-0.09,4.403-0.09,5.443c0,1.735,0.972,2.499,2.221,2.499c1.25,0,3.957,0,5.137,0c1.562,0,2.013-1.389,2.035-3.47   c0.022-2.307,0.691-9.933,0.14-15.951c1.389-6.065,2.404-12.744,1.921-13.712c-0.833-1.666-1.296-1.851-1.574-5.368   c-0.098-1.235-0.699-5.681-1.761-11.005c5.037,0.063,3.818,0.496,5.184,1.009c1.481,0.555,2.687,0.557,3.519-0.277   C95.279,43.359,94.979,39.495,94.701,37.458z M23.137,69.366c-4.096,0-4.512-2.707-4.512-6.524c0-3.818,0.139-8.053,4.512-8.053   s4.581,3.124,4.581,6.941C27.718,65.549,27.232,69.366,23.137,69.366z M76.897,70.13c-4.095,0-4.581-3.817-4.581-7.636   c0-3.817,0.208-6.941,4.581-6.941s4.512,4.234,4.512,8.053C81.409,67.423,80.993,70.13,76.897,70.13z M50,44.794   c-12.703,0-34.151-0.278-34.151-0.278c0-10.852,6.733-22.073,6.733-22.073c8.052-2.291,17.006-3.124,27.418-3.124   s19.366,0.833,27.418,3.124c0,0,6.733,11.222,6.733,22.073C84.151,44.516,62.702,44.794,50,44.794z"/></g><text x="0" y="115" fill="#000000" font-size="5px" font-weight="bold" font-family="'Helvetica Neue', Helvetica, Arial-Unicode, Arial, Sans-serif">Created by Sherrinford</text><text x="0" y="120" fill="#000000" font-size="5px" font-weight="bold" font-family="'Helvetica Neue', Helvetica, Arial-Unicode, Arial, Sans-serif">from the Noun Project</text></svg>