<svg xmlns="http://www.w3.org/2000/svg" xmlns:xlink="http://www.w3.org/1999/xlink" version="1.1" x="0px" y="0px" viewBox="0 0 529.791 540.95375" style="enable-background:new 0 0 529.791 432.763;" xml:space="preserve"><g><path d="M61.498,432.763c6.281,0,11.361-5.076,11.361-11.344v-20.813h181.619v20.813c0,6.268,5.074,11.344,11.348,11.344h22.699   c6.279,0,11.359-5.076,11.359-11.344v-20.813h11.348v-22.722H16.107v22.722h11.35v20.813c0,6.268,5.07,11.344,11.359,11.344H61.498   z"/><path d="M16.107,371.584h295.125v-40.836h16.108v-23.711h-35.717l-28.805-70.473c0,0-0.345-0.058-0.977-0.161l-44.768,15.983   c11.83,1.7,22.588,3.386,29.096,4.426l25.969,61.191c0,0-10.197-1.676-24.996-3.736c-0.102-19.246-15.725-34.815-34.994-34.817   c-16.807,0.002-30.834,11.844-34.219,27.637c-5.025-0.251-9.826-0.393-14.26-0.393c-39.658,0-108.506,11.311-108.506,11.311   l26.018-61.172c12.104-1.947,38.865-6.109,59.92-8.457l36.863-23.594c-5.713-0.519-10.637-0.826-14.281-0.826   c-23.369,0-99.141,12.609-99.141,12.609l-28.816,70.473H0v23.711h16.107V371.584z M241.059,342.603   c0-3.638,2.949-6.586,6.588-6.586h38.199c3.639,0,6.588,2.948,6.588,6.586v9.88c0,3.638-2.949,6.587-6.588,6.587h-38.199   c-3.639,0-6.588-2.949-6.588-6.587V342.603z M212.148,287.45c14.48,0.026,26.275,11.407,26.965,25.725   c-15.939-2.118-35.393-4.394-53.068-5.605C189.098,295.998,199.615,287.473,212.148,287.45z M34.906,342.603   c0-3.638,2.949-6.586,6.588-6.586h38.199c3.639,0,6.588,2.948,6.588,6.586v9.88c0,3.638-2.949,6.587-6.588,6.587H41.494   c-3.639,0-6.588-2.949-6.588-6.587V342.603z"/><ellipse transform="matrix(0.8741 -0.4857 0.4857 0.8741 -9.3387 199.4879)" cx="380.232" cy="117.762" rx="36.37" ry="36.373"/><path d="M97.605,262.141c-11.209,5.354-15.955,18.783-10.6,29.992c5.357,11.209,18.785,15.955,29.994,10.599   c7.717-3.685,12.369-11.197,12.773-19.178c0.17-3.325-0.404-6.73-1.797-9.976l141.727-50.599   c25.483,37.159,68.123,61.667,116.596,62.007c78.695,0.551,142.937-62.798,143.488-141.494   C530.338,64.799,466.99,0.554,388.293,0.004c-78.695-0.551-142.938,62.8-143.488,141.494c-0.117,16.605,2.623,32.563,7.74,47.418   l-126.553,81.001c-1.984-2.969-4.595-5.342-7.566-7.028C112.244,259.379,104.504,258.843,97.605,262.141z M387.443,21.901   c66.367,0,120.164,53.799,120.164,120.164c0,39.104-18.682,73.839-47.604,95.783c-10.676-13.368-12.586-24.921-14.726-38.156   c-1.598-9.871-1.335-20.257-0.684-32.072c3.272-4.657,7.682-11.179,12.1-18.476c4.309-7.14,8.639-14.979,11.965-22.847   c3.234-7.943,5.875-15.625,5.391-24.5c-0.211-2.845-0.84-5.893-2.264-8.923c-2.059-4.568-6.352-8.704-11.146-10.656   c-4.807-2.03-9.717-2.415-14.766-2.071c-9.528,0.76-20.367,4.12-34.684,10.412c1.922,2.182,3.63,4.584,5.074,7.184   c2.892,5.2,4.583,10.843,5.06,16.6c12.965-5.766,21.982-8.144,26.414-8.399c0.121-0.007,0.238-0.017,0.35-0.022   c-0.402,2.384-1.447,6.213-3.262,10.324c-3.846,9.159-10.461,20.204-16.051,28.658c-2.799,4.241-5.342,7.871-7.172,10.417   c-0.148,0.207-0.283,0.395-0.422,0.587c-3.375,1.001-6.75,2.002-10.123,3.002c-13.77,4.081-27.537,8.162-41.303,12.245   c-0.279,0.033-0.557,0.06-0.836,0.112c0,0-0.203,0.033-0.688,0.122c-3.352,0.601-18.895,3.095-32.137,3.068   c-4.916,0.04-9.553-0.397-12.568-1.04c1.631-2.379,4.547-5.944,9.109-10.156c4.674-4.412,10.984-9.657,19.123-15.731   c-2.953-2.815-5.521-6.078-7.557-9.744c-2.35-4.225-3.912-8.739-4.672-13.37c-12.268,8.959-21.43,16.648-28.195,23.503   c-4.627,4.709-8.172,9.033-10.816,13.48c-2.596,4.426-4.475,9.161-4.51,14.677c-0.117,5.419,2.406,11.114,5.928,14.553   c5.318,5.24,11.135,6.947,16.756,8.198c5.676,1.151,11.537,1.486,17.402,1.498c5.848-0.01,11.719-0.374,17.026-0.867   c10.011,32.029,12.021,42.828,27.794,62.594c-63.326-3.392-113.635-55.812-113.635-119.985   C267.281,75.7,321.082,21.901,387.443,21.901z"/></g><text x="0" y="447.763" fill="#000000" font-size="5px" font-weight="bold" font-family="'Helvetica Neue', Helvetica, Arial-Unicode, Arial, Sans-serif">Created by Gan Khoon Lay</text><text x="0" y="452.763" fill="#000000" font-size="5px" font-weight="bold" font-family="'Helvetica Neue', Helvetica, Arial-Unicode, Arial, Sans-serif">from the Noun Project</text></svg>