<svg xmlns="http://www.w3.org/2000/svg" xmlns:xlink="http://www.w3.org/1999/xlink" version="1.1" x="0px" y="0px" viewBox="0 0 100 125" style="enable-background:new 0 0 100 100;" xml:space="preserve"><path d="M80.4316406,27.9980469c0.059082,0.0102539,0.1181641,0.015625,0.1767578,0.015625  c0.2626953,0,0.5180664-0.1035156,0.7070312-0.2929688l6.0712891-6.0708008  c0.2631836-0.2631836,0.3583984-0.6508789,0.2470703-1.0063477c-0.1113281-0.3549805-0.4111328-0.6191406-0.7773438-0.6850586  l-3.5061646-0.6295166l-0.6290894-3.5057373c-0.065918-0.3662109-0.3295898-0.6660156-0.6850586-0.7773438  c-0.3564453-0.1113281-0.7426758-0.0166016-1.0063477,0.2470703l-6.0712891,6.0712891  c-0.2314453,0.2314453-0.3349609,0.5615234-0.2773438,0.8837891l0.6600342,3.6759644l-2.1528931,2.1529541  c-6.272644-5.927002-14.7225952-9.5725708-24.0130005-9.5725708c-19.2988281,0-35,15.7011719-35,35s15.7011719,35,35,35  s35-15.7011719,35-35c0-9.2905884-3.6456909-17.7406616-9.572876-24.0133667l2.1526489-2.15271L80.4316406,27.9980469z   M75.027832,53.5043945c0,14.2553711-11.597168,25.8525391-25.8525391,25.8525391s-25.8525391-11.597168-25.8525391-25.8525391  s11.597168-25.8525391,25.8525391-25.8525391c6.7686768,0,12.9348755,2.6178589,17.5480347,6.8901367l-3.6547852,3.6549072  c-3.6781616-3.3416138-8.5440063-5.3980713-13.8932495-5.3980713c-11.4169922,0-20.7050781,9.2885742-20.7050781,20.7055664  s9.2880859,20.7050781,20.7050781,20.7050781s20.7050781-9.2880859,20.7050781-20.7050781  c0-5.3491821-2.0563354-10.2150879-5.3978271-13.8934326l3.6548462-3.6549072  C72.40979,40.5692749,75.027832,46.7355957,75.027832,53.5043945z M49.175293,59.9145508  c3.534668,0,6.4101562-2.8754883,6.4101562-6.4101562c0-1.4069824-0.4609985-2.7053223-1.2324219-3.7637329l3.6643066-3.6643677  c1.6917725,2.0106812,2.7155762,4.6008911,2.7155762,7.4281006c0,6.3730469-5.1845703,11.5576172-11.5576172,11.5576172  s-11.5576172-5.1845703-11.5576172-11.5576172s5.1845703-11.5581055,11.5576172-11.5581055  c2.8272705,0,5.4174805,1.0239258,7.4280396,2.7158813l-3.6642456,3.6643066  c-1.0583496-0.7716064-2.3567505-1.2327271-3.7637939-1.2327271c-3.534668,0-6.4101562,2.8759766-6.4101562,6.4106445  S45.640625,59.9145508,49.175293,59.9145508z"/><!--<text x="0" y="115" fill="#000000" font-size="5px" font-weight="bold" font-family="'Helvetica Neue', Helvetica, Arial-Unicode, Arial, Sans-serif">Created by Artem  Kovyazin</text><text x="0" y="120" fill="#000000" font-size="5px" font-weight="bold" font-family="'Helvetica Neue', Helvetica, Arial-Unicode, Arial, Sans-serif">from the Noun Project</text>--></svg>