<svg xmlns="http://www.w3.org/2000/svg" xmlns:xlink="http://www.w3.org/1999/xlink" version="1.1" x="0px" y="0px" viewBox="0 0 128 160" style="enable-background:new 0 0 128 128;" xml:space="preserve"><path d="M19,38.4c-1.1-2.3-2.4-3.7-4.4-4.8c-0.5-0.3-0.9-0.6-1.3-0.9l-2.8,1.5L11,31c0.2-1.4-0.2-2.8-1.2-3.7L7.5,25l3.2-0.5  c1.3-0.2,2.5-1.1,3.1-2.3l1.4-3l1.4,3c0.6,1.2,1.8,2.1,3.1,2.3l2.8,0.4c0.9-1.4,1.9-2.6,3-3.8l-5.2-0.8L16.4,12  c-0.3-0.7-0.8-1-1.2-1s-0.9,0.3-1.2,1l-3.9,8.2l-8.8,1.3c-1.5,0.2-1.8,1.3-0.7,2.3L7,30.3l-1.5,9C5.3,40.4,5.7,41,6.4,41  c0.3,0,0.6-0.1,1-0.3l7.9-4.3L19,38.4C19,38.5,19,38.4,19,38.4z"/><path d="M36.8,21.1c1.8-0.7,1.3-3.5-0.3-3.5c-0.2,0-0.4,0-0.6,0.1c-6.1,2.3-11.2,7.8-13.4,14.1c-1.3-1.6-2.9-3-4.9-4  c-0.3-0.1-0.6-0.2-0.8-0.2c-1.6,0-2.6,2.4-0.9,3.2c2.7,1.4,4.4,3.4,5.8,6.1c0.3,0.6,0.9,0.8,1.5,0.8c0.8,0,1.5-0.4,1.6-1.3  C25.9,30,30.6,23.4,36.8,21.1z"/><path d="M19,76.4c-1.1-2.3-2.4-3.7-4.4-4.8c-0.5-0.3-0.9-0.6-1.3-0.9l-2.8,1.5L11,69c0.2-1.4-0.2-2.8-1.2-3.7L7.5,63l3.2-0.5  c1.3-0.2,2.5-1.1,3.1-2.3l1.4-3l1.4,3c0.6,1.2,1.8,2.1,3.1,2.3l2.8,0.4c0.9-1.4,1.9-2.6,3-3.8l-5.2-0.8L16.4,50  c-0.3-0.7-0.8-1-1.2-1s-0.9,0.3-1.2,1l-3.9,8.2l-8.8,1.3c-1.5,0.2-1.8,1.3-0.7,2.3L7,68.3l-1.5,9C5.3,78.4,5.7,79,6.4,79  c0.3,0,0.6-0.1,1-0.3l7.9-4.3L19,76.4C19,76.5,19,76.4,19,76.4z"/><path d="M36.8,59.1c1.8-0.7,1.3-3.5-0.3-3.5c-0.2,0-0.4,0-0.6,0.1c-6.1,2.3-11.2,7.8-13.4,14.1c-1.3-1.6-2.9-3-4.9-4  c-0.3-0.1-0.6-0.2-0.8-0.2c-1.6,0-2.6,2.4-0.9,3.2c2.7,1.4,4.4,3.4,5.8,6.1c0.3,0.6,0.9,0.8,1.5,0.8c0.8,0,1.5-0.4,1.6-1.3  C25.9,68,30.6,61.4,36.8,59.1z"/><path d="M19,114.4c-1.1-2.3-2.4-3.7-4.4-4.8c-0.5-0.3-0.9-0.6-1.3-0.9l-2.8,1.5L11,107c0.2-1.4-0.2-2.8-1.2-3.7L7.5,101l3.2-0.5  c1.3-0.2,2.5-1.1,3.1-2.3l1.4-3l1.4,3c0.6,1.2,1.8,2.1,3.1,2.3l2.8,0.4c0.9-1.4,1.9-2.6,3-3.8l-5.2-0.8L16.4,88  c-0.3-0.7-0.8-1-1.2-1s-0.9,0.3-1.2,1l-3.9,8.2l-8.8,1.3c-1.5,0.2-1.8,1.3-0.7,2.3l6.4,6.4l-1.5,9c-0.2,1.1,0.2,1.7,0.9,1.7  c0.3,0,0.6-0.1,1-0.3l7.9-4.3L19,114.4C19,114.5,19,114.4,19,114.4z"/><path d="M36.8,97.1c1.8-0.7,1.3-3.5-0.3-3.5c-0.2,0-0.4,0-0.6,0.1c-6.1,2.3-11.2,7.8-13.4,14.1c-1.3-1.6-2.9-3-4.9-4  c-0.3-0.1-0.6-0.2-0.8-0.2c-1.6,0-2.6,2.4-0.9,3.2c2.7,1.4,4.4,3.4,5.8,6.1c0.3,0.6,0.9,0.8,1.5,0.8c0.8,0,1.5-0.4,1.6-1.3  C25.9,106,30.6,99.4,36.8,97.1z"/><path d="M128,26c0,2.2-1.6,4-3.6,4H50.6c-2,0-3.6-1.8-3.6-4l0,0c0-2.2,1.6-4,3.6-4h73.8C126.4,22,128,23.8,128,26L128,26z"/><path d="M128,64c0,2.2-1.6,4-3.6,4H50.6c-2,0-3.6-1.8-3.6-4l0,0c0-2.2,1.6-4,3.6-4h73.8C126.4,60,128,61.8,128,64L128,64z"/><path d="M128,102c0,2.2-1.6,4-3.6,4H50.6c-2,0-3.6-1.8-3.6-4l0,0c0-2.2,1.6-4,3.6-4h73.8C126.4,98,128,99.8,128,102L128,102z"/><!--<text x="0" y="143" fill="#000000" font-size="5px" font-weight="bold" font-family="'Helvetica Neue', Helvetica, Arial-Unicode, Arial, Sans-serif">Created by Creative Mahira</text><text x="0" y="148" fill="#000000" font-size="5px" font-weight="bold" font-family="'Helvetica Neue', Helvetica, Arial-Unicode, Arial, Sans-serif">from the Noun Project</text>--></svg>