<svg xmlns="http://www.w3.org/2000/svg" xmlns:xlink="http://www.w3.org/1999/xlink" version="1.1" x="0px" y="0px" viewBox="0 0 66 82.5" enable-background="new 0 0 66 66" xml:space="preserve"><g><g><path d="M5.9,7.8c0-2.6,2.1-4.7,4.7-4.7s4.7,2.1,4.7,4.7s-2.1,4.7-4.7,4.7S5.9,10.4,5.9,7.8z"/></g><g><path d="M18.9,44.4c-3.3,0-6-2.7-6-6c0-3.3,2.7-6,6-6s6,2.7,6,6C24.9,41.7,22.2,44.4,18.9,44.4z"/></g><g><path d="M63,61.9c0,0.6-0.5,1-1,1H4c-0.6,0-1-0.4-1-1c0-0.6,0.4-1,1-1h2.9v-9.3c0-2.8,2.3-5,5-5h14c2.8,0,5,2.3,5,5v9.3h4.1v-9.3    c0-2.8,2.3-5,5-5h14c2.8,0,5,2.3,5,5v9.3H62C62.5,60.9,63,61.3,63,61.9z"/></g><g><path d="M50.8,7.8c0-2.6,2.1-4.7,4.7-4.7s4.7,2.1,4.7,4.7s-2.1,4.7-4.7,4.7S50.8,10.4,50.8,7.8z"/></g><g><path d="M65,19.6v6.5c0,0.6-0.5,1-1,1H2c-0.5,0-1-0.4-1-1v-6.5c0-2.8,2.2-5,5-5h9.1c2.8,0,5,2.2,5,5v5.5h3.3v-5.5c0-2.8,2.2-5,5-5    h9.1c2.8,0,5,2.2,5,5v5.5h3.3v-5.5c0-2.8,2.2-5,5-5H60C62.8,14.6,65,16.9,65,19.6z"/></g><g><path d="M47.1,44.4c-3.3,0-6-2.7-6-6c0-3.3,2.7-6,6-6c3.3,0,6,2.7,6,6C53.1,41.7,50.4,44.4,47.1,44.4z"/></g><g><path d="M28.3,7.8c0-2.6,2.1-4.7,4.7-4.7s4.7,2.1,4.7,4.7s-2.1,4.7-4.7,4.7S28.3,10.4,28.3,7.8z"/></g></g><!--<text x="0" y="81" fill="#000000" font-size="5px" font-weight="bold" font-family="'Helvetica Neue', Helvetica, Arial-Unicode, Arial, Sans-serif">Created by ProSymbols</text><text x="0" y="86" fill="#000000" font-size="5px" font-weight="bold" font-family="'Helvetica Neue', Helvetica, Arial-Unicode, Arial, Sans-serif">from the Noun Project</text>--></svg>